<svg version="1.1" preserveAspectRatio="none" xmlns="http://www.w3.org/2000/svg" width="500" height="500" viewBox="0 0 500 500"><rect width="100%" height="100%" fill="#010506" fill-opacity="1"/><svg viewBox="64.2141 267.5 504.921 88" width="333" height="58.036801796716716" x="83.5px" y="220.9816px" xmlns="http://www.w3.org/2000/svg" xmlns:xlink="http://www.w3.org/1999/xlink" preserveAspectRatio="none"><defs></defs><style>.background {fill:#010506;fill-opacity:1;}.companyName {fill:#EEF8F7;fill-opacity:1;}.icon1 {fill:#E35F21;fill-opacity:1;}.icon2 {fill:#EEF8F7;fill-opacity:1;}.icon3 {fill:#FAAB05;fill-opacity:1;}.icon3-str {stroke:#FAAB05;stroke-opacity:1;}.shapeStroke-str {stroke:#E35F21;stroke-opacity:1;}.text {fill:#EEF8F7;fill-opacity:1;}</style><g opacity="1" transform="rotate(0 106.7403 267.5)">
<svg width="50" height="50" x="106.7403" y="267.5" version="1.1" preserveAspectRatio="none" viewBox="0 0 50 50">
  <defs><rect x="0" y="0" width="50" height="50" rx="150px" ry="150px" id="id-3WKIowxM31724428017591"></rect></defs><use class="icon1 shapeStroke-str" style="stroke-width:0;" xlink:href="#id-3WKIowxM31724428017591"></use>
</svg>
</g><g opacity="1" transform="rotate(0 114.2403 282.1701)">
<svg width="35" height="20.6598" x="114.2403" y="282.1701" version="1.1" preserveAspectRatio="none" viewBox="28 57.5 144 85">
  <g transform="matrix(1 0 0 1 0 0)"><g><path d="M28 65.5h18v77H28v-77z" data-color="1" class="background"></path><path d="M50 57.5h18v85H50v-85z" data-color="1" class="background"></path><path d="M72 78.5h18v64H72v-64z" data-color="1" class="background"></path><path d="M94 57.5h18v85H94v-85z" data-color="1" class="background"></path><path d="M172 132.3l-15.6 9-42.5-73.6 15.6-9 42.5 73.6z" data-color="1" class="background"></path></g></g>
</svg>
</g><g opacity="1" transform="rotate(0 64.2141 335.5)">
<svg width="504.921" height="20" x="64.2141" y="335.5" version="1.1" preserveAspectRatio="none" viewBox="1.96 -31.32 921.9999999999999 36.519999999999996">
  <g transform="matrix(1 0 0 1 0 0)" class="text"><path id="id-6izo4zJp38" d="M15.40-28.48Q20.56-28.48 23.92-25.94Q27.28-23.40 28.56-19L28.56-19L24.72-19Q23.64-21.80 21.24-23.46Q18.84-25.12 15.36-25.12L15.36-25.12Q12.60-25.12 10.42-23.78Q8.24-22.44 6.98-19.94Q5.72-17.44 5.72-14.08L5.72-14.08Q5.72-10.76 6.98-8.28Q8.24-5.80 10.42-4.46Q12.60-3.12 15.36-3.12L15.36-3.12Q18.84-3.12 21.24-4.78Q23.64-6.44 24.72-9.24L24.72-9.24L28.56-9.24Q27.28-4.84 23.92-2.30Q20.56 0.24 15.40 0.24L15.40 0.24Q11.44 0.24 8.40-1.58Q5.36-3.40 3.66-6.66Q1.96-9.92 1.96-14.08L1.96-14.08Q1.96-18.28 3.66-21.56Q5.36-24.84 8.40-26.66Q11.44-28.48 15.40-28.48L15.40-28.48Z M47.40-22.24Q50.56-22.24 53.06-20.88Q55.56-19.52 56.98-16.96Q58.40-14.40 58.40-10.96L58.40-10.96Q58.40-7.52 56.98-4.98Q55.56-2.44 53.06-1.08Q50.56 0.28 47.40 0.28L47.40 0.28Q44.24 0.28 41.74-1.08Q39.24-2.44 37.80-4.98Q36.36-7.52 36.36-10.96L36.36-10.96Q36.36-14.40 37.80-16.96Q39.24-19.52 41.74-20.88Q44.24-22.24 47.40-22.24L47.40-22.24ZM47.40-19.04Q45.44-19.04 43.78-18.16Q42.12-17.28 41.10-15.46Q40.08-13.64 40.08-10.96L40.08-10.96Q40.08-8.32 41.10-6.50Q42.12-4.68 43.78-3.80Q45.44-2.92 47.40-2.92L47.40-2.92Q49.36-2.92 51.02-3.80Q52.68-4.68 53.70-6.50Q54.72-8.32 54.72-10.96L54.72-10.96Q54.72-13.64 53.70-15.46Q52.68-17.28 51.02-18.16Q49.36-19.04 47.40-19.04L47.40-19.04Z M67.16-29.60L70.80-29.60L70.80 0L67.16 0L67.16-29.60Z M80.64-29.60L84.28-29.60L84.28 0L80.64 0L80.64-29.60Z M103.12-22.24Q106.32-22.24 108.54-20.64Q110.76-19.04 111.64-16.36L111.64-16.36L111.64-21.96L115.28-21.96L115.28 0L111.64 0L111.64-5.60Q110.76-2.92 108.54-1.32Q106.32 0.28 103.12 0.28L103.12 0.28Q100.20 0.28 97.92-1.08Q95.64-2.44 94.34-4.98Q93.04-7.52 93.04-10.96L93.04-10.96Q93.04-14.40 94.34-16.96Q95.64-19.52 97.92-20.88Q100.20-22.24 103.12-22.24L103.12-22.24ZM104.16-19Q100.80-19 98.78-16.86Q96.76-14.72 96.76-10.96L96.76-10.96Q96.76-7.20 98.78-5.06Q100.80-2.92 104.16-2.92L104.16-2.92Q106.32-2.92 108.02-3.92Q109.72-4.92 110.68-6.74Q111.64-8.56 111.64-10.96L111.64-10.96Q111.64-13.36 110.68-15.20Q109.72-17.04 108.02-18.02Q106.32-19 104.16-19L104.16-19Z M137.20-22.24Q140.12-22.24 142.40-20.88Q144.68-19.52 145.98-16.96Q147.28-14.40 147.28-10.96L147.28-10.96Q147.28-7.52 145.98-4.98Q144.68-2.44 142.40-1.08Q140.12 0.28 137.20 0.28L137.20 0.28Q134 0.28 131.78-1.34Q129.56-2.96 128.72-5.60L128.72-5.60L128.72 0L125.08 0L125.08-29.60L128.72-29.60L128.72-16.36Q129.56-19 131.78-20.62Q134-22.24 137.20-22.24L137.20-22.24ZM136.16-19Q134.04-19 132.32-18.02Q130.60-17.04 129.64-15.20Q128.68-13.36 128.68-10.96L128.68-10.96Q128.68-8.56 129.64-6.74Q130.60-4.92 132.32-3.92Q134.04-2.92 136.16-2.92L136.16-2.92Q139.56-2.92 141.58-5.06Q143.60-7.20 143.60-10.96L143.60-10.96Q143.60-14.72 141.58-16.86Q139.56-19 136.16-19L136.16-19Z M166-22.24Q169.16-22.24 171.66-20.88Q174.16-19.52 175.58-16.96Q177-14.40 177-10.96L177-10.96Q177-7.52 175.58-4.98Q174.16-2.44 171.66-1.08Q169.16 0.28 166 0.28L166 0.28Q162.84 0.28 160.34-1.08Q157.84-2.44 156.40-4.98Q154.96-7.52 154.96-10.96L154.96-10.96Q154.96-14.40 156.40-16.96Q157.84-19.52 160.34-20.88Q162.84-22.24 166-22.24L166-22.24ZM166-19.04Q164.04-19.04 162.38-18.16Q160.72-17.28 159.70-15.46Q158.68-13.64 158.68-10.96L158.68-10.96Q158.68-8.32 159.70-6.50Q160.72-4.68 162.38-3.80Q164.04-2.92 166-2.92L166-2.92Q167.96-2.92 169.62-3.80Q171.28-4.68 172.30-6.50Q173.32-8.32 173.32-10.96L173.32-10.96Q173.32-13.64 172.30-15.46Q171.28-17.28 169.62-18.16Q167.96-19.04 166-19.04L166-19.04Z M189.40-17.52Q190.48-19.80 192.56-21.06Q194.64-22.32 197.52-22.32L197.52-22.32L197.52-18.36L196.40-18.36Q193.32-18.36 191.36-16.78Q189.40-15.20 189.40-11.56L189.40-11.56L189.40 0L185.76 0L185.76-21.96L189.40-21.96L189.40-17.52Z M225.32-12.20Q225.32-11.04 225.16-10.20L225.16-10.20L207.60-10.20Q207.72-6.44 209.74-4.56Q211.76-2.68 214.68-2.68L214.68-2.68Q217.32-2.68 219.10-4.02Q220.88-5.36 221.28-7.60L221.28-7.60L225.16-7.60Q224.76-5.32 223.38-3.52Q222-1.72 219.80-0.72Q217.60 0.28 214.84 0.28L214.84 0.28Q211.68 0.28 209.24-1.08Q206.80-2.44 205.42-4.98Q204.04-7.52 204.04-10.96L204.04-10.96Q204.04-14.40 205.42-16.96Q206.80-19.52 209.24-20.88Q211.68-22.24 214.84-22.24L214.84-22.24Q218.04-22.24 220.42-20.88Q222.80-19.52 224.06-17.24Q225.32-14.96 225.32-12.20L225.32-12.20ZM221.64-11.96Q221.76-14.40 220.84-16.04Q219.92-17.68 218.32-18.48Q216.72-19.28 214.84-19.28L214.84-19.28Q211.84-19.28 209.80-17.42Q207.76-15.56 207.60-11.96L207.60-11.96L221.64-11.96Z M247.56-19L236.20-3.08L247.96-3.08L247.96 0L232.20 0L232.20-2.92L243.40-18.88L232.52-18.88L232.52-21.96L247.56-21.96L247.56-19Z M296.80-22.32Q300.64-22.32 302.98-19.86Q305.32-17.40 305.32-12.76L305.32-12.76L305.32 0L301.68 0L301.68-12.44Q301.68-15.68 300.10-17.40Q298.52-19.12 295.76-19.12L295.76-19.12Q292.88-19.12 291.14-17.22Q289.40-15.32 289.40-11.64L289.40-11.64L289.40 0L285.76 0L285.76-12.44Q285.76-15.68 284.16-17.40Q282.56-19.12 279.84-19.12L279.84-19.12Q276.92-19.12 275.18-17.22Q273.44-15.32 273.44-11.64L273.44-11.64L273.44 0L269.80 0L269.80-21.96L273.44-21.96L273.44-16.96Q274.24-19.56 276.30-20.94Q278.36-22.32 281.04-22.32L281.04-22.32Q283.84-22.32 285.90-20.90Q287.96-19.48 288.84-16.72L288.84-16.72Q289.76-19.40 291.92-20.86Q294.08-22.32 296.80-22.32L296.80-22.32Z M314.32-28.40Q314.32-29.40 315-30.02Q315.68-30.64 316.80-30.64L316.80-30.64Q317.92-30.64 318.60-30.02Q319.28-29.40 319.28-28.40L319.28-28.40Q319.28-27.40 318.60-26.78Q317.92-26.16 316.80-26.16L316.80-26.16Q315.68-26.16 315-26.78Q314.32-27.40 314.32-28.40L314.32-28.40ZM314.96-21.96L318.60-21.96L318.60 0L314.96 0L314.96-21.96Z M348.64-12.20Q348.64-11.04 348.48-10.20L348.48-10.20L330.92-10.20Q331.04-6.44 333.06-4.56Q335.08-2.68 338.00-2.68L338.00-2.68Q340.64-2.68 342.42-4.02Q344.20-5.36 344.60-7.60L344.60-7.60L348.48-7.60Q348.08-5.32 346.70-3.52Q345.32-1.72 343.12-0.72Q340.92 0.28 338.16 0.28L338.16 0.28Q335.00 0.28 332.56-1.08Q330.12-2.44 328.74-4.98Q327.36-7.52 327.36-10.96L327.36-10.96Q327.36-14.40 328.74-16.96Q330.12-19.52 332.56-20.88Q335.00-22.24 338.16-22.24L338.16-22.24Q341.36-22.24 343.74-20.88Q346.12-19.52 347.38-17.24Q348.64-14.96 348.64-12.20L348.64-12.20ZM344.96-11.96Q345.08-14.40 344.16-16.04Q343.24-17.68 341.64-18.48Q340.04-19.28 338.16-19.28L338.16-19.28Q335.16-19.28 333.12-17.42Q331.08-15.56 330.92-11.96L330.92-11.96L344.96-11.96Z M373.28-21.96L376.92-21.96L376.92 0L373.28 0L373.28-5.16Q372.44-2.48 370.30-1.06Q368.16 0.36 365.32 0.36L365.32 0.36Q361.52 0.36 359.16-2.10Q356.80-4.56 356.80-9.16L356.80-9.16L356.80-21.96L360.44-21.96L360.44-9.52Q360.44-6.24 362.12-4.46Q363.80-2.68 366.68-2.68L366.68-2.68Q369.68-2.68 371.48-4.62Q373.28-6.56 373.28-10.28L373.28-10.28L373.28-21.96Z M403.56 0L399.40 0L393.68-8.40L388.52 0L384.48 0L391.68-11.32L384.44-21.96L388.60-21.96L394.16-13.80L399.24-21.96L403.28-21.96L396.12-10.92L403.56 0Z M413.08-2.68Q413.64-0.92 413.64 0.60L413.64 0.60Q413.64 2.68 412.60 3.94Q411.56 5.20 409.48 5.20L409.48 5.20L409.48 3.64Q410.48 3.64 410.94 3.10Q411.40 2.56 411.40 1.40L411.40 1.40L411.40 1.04L409.36 1.04L409.36-2.68L413.08-2.68Z M439.48-17.52Q440.56-19.80 442.64-21.06Q444.72-22.32 447.60-22.32L447.60-22.32L447.60-18.36L446.48-18.36Q443.40-18.36 441.44-16.78Q439.48-15.20 439.48-11.56L439.48-11.56L439.48 0L435.84 0L435.84-21.96L439.48-21.96L439.48-17.52Z M475.40-12.20Q475.40-11.04 475.24-10.20L475.24-10.20L457.68-10.20Q457.80-6.44 459.82-4.56Q461.84-2.68 464.76-2.68L464.76-2.68Q467.40-2.68 469.18-4.02Q470.96-5.36 471.36-7.60L471.36-7.60L475.24-7.60Q474.84-5.32 473.46-3.52Q472.08-1.72 469.88-0.72Q467.68 0.28 464.92 0.28L464.92 0.28Q461.76 0.28 459.32-1.08Q456.88-2.44 455.50-4.98Q454.12-7.52 454.12-10.96L454.12-10.96Q454.12-14.40 455.50-16.96Q456.88-19.52 459.32-20.88Q461.76-22.24 464.92-22.24L464.92-22.24Q468.12-22.24 470.50-20.88Q472.88-19.52 474.14-17.24Q475.40-14.96 475.40-12.20L475.40-12.20ZM471.72-11.96Q471.84-14.40 470.92-16.04Q470-17.68 468.40-18.48Q466.80-19.28 464.92-19.28L464.92-19.28Q461.92-19.28 459.88-17.42Q457.84-15.56 457.68-11.96L457.68-11.96L471.72-11.96ZM471.36-31.32L471.36-28.36L462.84-23.68L462.84-26.28L471.36-31.32Z M500.04-21.96L503.68-21.96L503.68 0L500.04 0L500.04-5.16Q499.20-2.48 497.06-1.06Q494.92 0.36 492.08 0.36L492.08 0.36Q488.28 0.36 485.92-2.10Q483.56-4.56 483.56-9.16L483.56-9.16L483.56-21.96L487.20-21.96L487.20-9.52Q487.20-6.24 488.88-4.46Q490.56-2.68 493.44-2.68L493.44-2.68Q496.44-2.68 498.24-4.62Q500.04-6.56 500.04-10.28L500.04-10.28L500.04-21.96Z M520.40-22.24Q524.12-22.24 526.38-20.30Q528.64-18.36 529.12-15.08L529.12-15.08L525.64-15.08Q525.40-17.04 524.02-18.30Q522.64-19.56 520.32-19.56L520.32-19.56Q518.36-19.56 517.26-18.62Q516.16-17.68 516.16-16.08L516.16-16.08Q516.16-14.88 516.90-14.14Q517.64-13.40 518.74-13.02Q519.84-12.64 521.76-12.20L521.76-12.20Q524.20-11.64 525.70-11.06Q527.20-10.48 528.26-9.20Q529.32-7.92 529.32-5.76L529.32-5.76Q529.32-3.08 527.30-1.40Q525.28 0.28 521.92 0.28L521.92 0.28Q518 0.28 515.52-1.60Q513.04-3.48 512.60-6.84L512.60-6.84L516.12-6.84Q516.32-4.84 517.86-3.60Q519.40-2.36 521.92-2.36L521.92-2.36Q523.80-2.36 524.86-3.32Q525.92-4.28 525.92-5.84L525.92-5.84Q525.92-7.12 525.16-7.88Q524.40-8.64 523.28-9.04Q522.16-9.44 520.20-9.88L520.20-9.88Q517.76-10.44 516.30-11Q514.84-11.56 513.82-12.78Q512.80-14 512.80-16.08L512.80-16.08Q512.80-18.84 514.84-20.54Q516.88-22.24 520.40-22.24L520.40-22.24Z M545.08-22.24Q548.80-22.24 551.06-20.30Q553.32-18.36 553.80-15.08L553.80-15.08L550.32-15.08Q550.08-17.04 548.70-18.30Q547.32-19.56 545-19.56L545-19.56Q543.04-19.56 541.94-18.62Q540.84-17.68 540.84-16.08L540.84-16.08Q540.84-14.88 541.58-14.14Q542.32-13.40 543.42-13.02Q544.52-12.64 546.44-12.20L546.44-12.20Q548.88-11.64 550.38-11.06Q551.88-10.48 552.94-9.20Q554-7.92 554-5.76L554-5.76Q554-3.08 551.98-1.40Q549.96 0.28 546.60 0.28L546.60 0.28Q542.68 0.28 540.20-1.60Q537.72-3.48 537.28-6.84L537.28-6.84L540.80-6.84Q541-4.84 542.54-3.60Q544.08-2.36 546.60-2.36L546.60-2.36Q548.48-2.36 549.54-3.32Q550.60-4.28 550.60-5.84L550.60-5.84Q550.60-7.12 549.84-7.88Q549.08-8.64 547.96-9.04Q546.84-9.44 544.88-9.88L544.88-9.88Q542.44-10.44 540.98-11Q539.52-11.56 538.50-12.78Q537.48-14 537.48-16.08L537.48-16.08Q537.48-18.84 539.52-20.54Q541.56-22.24 545.08-22.24L545.08-22.24Z M562.24-28.40Q562.24-29.40 562.92-30.02Q563.60-30.64 564.72-30.64L564.72-30.64Q565.84-30.64 566.52-30.02Q567.20-29.40 567.20-28.40L567.20-28.40Q567.20-27.40 566.52-26.78Q565.84-26.16 564.72-26.16L564.72-26.16Q563.60-26.16 562.92-26.78Q562.24-27.40 562.24-28.40L562.24-28.40ZM562.88-21.96L566.52-21.96L566.52 0L562.88 0L562.88-21.96Z M583.24-22.24Q586.96-22.24 589.22-20.30Q591.48-18.36 591.96-15.08L591.96-15.08L588.48-15.08Q588.24-17.04 586.86-18.30Q585.48-19.56 583.16-19.56L583.16-19.56Q581.20-19.56 580.10-18.62Q579.00-17.68 579.00-16.08L579.00-16.08Q579.00-14.88 579.74-14.14Q580.48-13.40 581.58-13.02Q582.68-12.64 584.60-12.20L584.60-12.20Q587.04-11.64 588.54-11.06Q590.04-10.48 591.10-9.20Q592.16-7.92 592.16-5.76L592.16-5.76Q592.16-3.08 590.14-1.40Q588.12 0.28 584.76 0.28L584.76 0.28Q580.84 0.28 578.36-1.60Q575.88-3.48 575.44-6.84L575.44-6.84L578.96-6.84Q579.16-4.84 580.70-3.60Q582.24-2.36 584.76-2.36L584.76-2.36Q586.64-2.36 587.70-3.32Q588.76-4.28 588.76-5.84L588.76-5.84Q588.76-7.12 588.00-7.88Q587.24-8.64 586.12-9.04Q585.00-9.44 583.04-9.88L583.04-9.88Q580.60-10.44 579.14-11Q577.68-11.56 576.66-12.78Q575.64-14 575.64-16.08L575.64-16.08Q575.64-18.84 577.68-20.54Q579.72-22.24 583.24-22.24L583.24-22.24Z M607.92-22.24Q611.64-22.24 613.90-20.30Q616.16-18.36 616.64-15.08L616.64-15.08L613.16-15.08Q612.92-17.04 611.54-18.30Q610.16-19.56 607.84-19.56L607.84-19.56Q605.88-19.56 604.78-18.62Q603.68-17.68 603.68-16.08L603.68-16.08Q603.68-14.88 604.42-14.14Q605.16-13.40 606.26-13.02Q607.36-12.64 609.28-12.20L609.28-12.20Q611.72-11.64 613.22-11.06Q614.72-10.48 615.78-9.20Q616.84-7.92 616.84-5.76L616.84-5.76Q616.84-3.08 614.82-1.40Q612.80 0.28 609.44 0.28L609.44 0.28Q605.52 0.28 603.04-1.60Q600.56-3.48 600.12-6.84L600.12-6.84L603.64-6.84Q603.84-4.84 605.38-3.60Q606.92-2.36 609.44-2.36L609.44-2.36Q611.32-2.36 612.38-3.32Q613.44-4.28 613.44-5.84L613.44-5.84Q613.44-7.12 612.68-7.88Q611.92-8.64 610.80-9.04Q609.68-9.44 607.72-9.88L607.72-9.88Q605.28-10.44 603.82-11Q602.36-11.56 601.34-12.78Q600.32-14 600.32-16.08L600.32-16.08Q600.32-18.84 602.36-20.54Q604.40-22.24 607.92-22.24L607.92-22.24Z M645.92-12.20Q645.92-11.04 645.76-10.20L645.76-10.20L628.20-10.20Q628.32-6.44 630.34-4.56Q632.36-2.68 635.28-2.68L635.28-2.68Q637.92-2.68 639.70-4.02Q641.48-5.36 641.88-7.60L641.88-7.60L645.76-7.60Q645.36-5.32 643.98-3.52Q642.60-1.72 640.40-0.72Q638.20 0.28 635.44 0.28L635.44 0.28Q632.28 0.28 629.84-1.08Q627.40-2.44 626.02-4.98Q624.64-7.52 624.64-10.96L624.64-10.96Q624.64-14.40 626.02-16.96Q627.40-19.52 629.84-20.88Q632.28-22.24 635.44-22.24L635.44-22.24Q638.64-22.24 641.02-20.88Q643.40-19.52 644.66-17.24Q645.92-14.96 645.92-12.20L645.92-12.20ZM642.24-11.96Q642.36-14.40 641.44-16.04Q640.52-17.68 638.92-18.48Q637.32-19.28 635.44-19.28L635.44-19.28Q632.44-19.28 630.40-17.42Q628.36-15.56 628.20-11.96L628.20-11.96L642.24-11.96Z M668.16-19L656.80-3.08L668.56-3.08L668.56 0L652.80 0L652.80-2.92L664.00-18.88L653.12-18.88L653.12-21.96L668.16-21.96L668.16-19Z M710.60-12.20Q710.60-11.04 710.44-10.20L710.44-10.20L692.88-10.20Q693.00-6.44 695.02-4.56Q697.04-2.68 699.96-2.68L699.96-2.68Q702.60-2.68 704.38-4.02Q706.16-5.36 706.56-7.60L706.56-7.60L710.44-7.60Q710.04-5.32 708.66-3.52Q707.28-1.72 705.08-0.72Q702.88 0.28 700.12 0.28L700.12 0.28Q696.96 0.28 694.52-1.08Q692.08-2.44 690.70-4.98Q689.32-7.52 689.32-10.96L689.32-10.96Q689.32-14.40 690.70-16.96Q692.08-19.52 694.52-20.88Q696.96-22.24 700.12-22.24L700.12-22.24Q703.32-22.24 705.70-20.88Q708.08-19.52 709.34-17.24Q710.60-14.96 710.60-12.20L710.60-12.20ZM706.92-11.96Q707.04-14.40 706.12-16.04Q705.20-17.68 703.60-18.48Q702.00-19.28 700.12-19.28L700.12-19.28Q697.12-19.28 695.08-17.42Q693.04-15.56 692.88-11.96L692.88-11.96L706.92-11.96Z M730.92-22.32Q734.76-22.32 737.12-19.86Q739.48-17.40 739.48-12.76L739.48-12.76L739.48 0L735.84 0L735.84-12.44Q735.84-15.72 734.16-17.48Q732.48-19.24 729.60-19.24L729.60-19.24Q726.60-19.24 724.80-17.30Q723.00-15.36 723.00-11.64L723.00-11.64L723.00 0L719.36 0L719.36-21.96L723.00-21.96L723.00-16.76Q723.84-19.44 725.98-20.88Q728.12-22.32 730.92-22.32L730.92-22.32Z M755.96-22.24Q759.68-22.24 761.94-20.30Q764.20-18.36 764.68-15.08L764.68-15.08L761.20-15.08Q760.96-17.04 759.58-18.30Q758.20-19.56 755.88-19.56L755.88-19.56Q753.92-19.56 752.82-18.62Q751.72-17.68 751.72-16.08L751.72-16.08Q751.72-14.88 752.46-14.14Q753.20-13.40 754.30-13.02Q755.40-12.64 757.32-12.20L757.32-12.20Q759.76-11.64 761.26-11.06Q762.76-10.48 763.82-9.20Q764.88-7.92 764.88-5.76L764.88-5.76Q764.88-3.08 762.86-1.40Q760.84 0.28 757.48 0.28L757.48 0.28Q753.56 0.28 751.08-1.60Q748.60-3.48 748.16-6.84L748.16-6.84L751.68-6.84Q751.88-4.84 753.42-3.60Q754.96-2.36 757.48-2.36L757.48-2.36Q759.36-2.36 760.42-3.32Q761.48-4.28 761.48-5.84L761.48-5.84Q761.48-7.12 760.72-7.88Q759.96-8.64 758.84-9.04Q757.72-9.44 755.76-9.88L755.76-9.88Q753.32-10.44 751.86-11Q750.40-11.56 749.38-12.78Q748.36-14 748.36-16.08L748.36-16.08Q748.36-18.84 750.40-20.54Q752.44-22.24 755.96-22.24L755.96-22.24Z M793.96-12.20Q793.96-11.04 793.80-10.20L793.80-10.20L776.24-10.20Q776.36-6.44 778.38-4.56Q780.40-2.68 783.32-2.68L783.32-2.68Q785.96-2.68 787.74-4.02Q789.52-5.36 789.92-7.60L789.92-7.60L793.80-7.60Q793.40-5.32 792.02-3.52Q790.64-1.72 788.44-0.72Q786.24 0.28 783.48 0.28L783.48 0.28Q780.32 0.28 777.88-1.08Q775.44-2.44 774.06-4.98Q772.68-7.52 772.68-10.96L772.68-10.96Q772.68-14.40 774.06-16.96Q775.44-19.52 777.88-20.88Q780.32-22.24 783.48-22.24L783.48-22.24Q786.68-22.24 789.06-20.88Q791.44-19.52 792.70-17.24Q793.96-14.96 793.96-12.20L793.96-12.20ZM790.28-11.96Q790.40-14.40 789.48-16.04Q788.56-17.68 786.96-18.48Q785.36-19.28 783.48-19.28L783.48-19.28Q780.48-19.28 778.44-17.42Q776.40-15.56 776.24-11.96L776.24-11.96L790.28-11.96Z M829.72-22.32Q833.56-22.32 835.90-19.86Q838.24-17.40 838.24-12.76L838.24-12.76L838.24 0L834.60 0L834.60-12.44Q834.60-15.68 833.02-17.40Q831.44-19.12 828.68-19.12L828.68-19.12Q825.80-19.12 824.06-17.22Q822.32-15.32 822.32-11.64L822.32-11.64L822.32 0L818.68 0L818.68-12.44Q818.68-15.68 817.08-17.40Q815.48-19.12 812.76-19.12L812.76-19.12Q809.84-19.12 808.10-17.22Q806.36-15.32 806.36-11.64L806.36-11.64L806.36 0L802.72 0L802.72-21.96L806.36-21.96L806.36-16.96Q807.16-19.56 809.22-20.94Q811.28-22.32 813.96-22.32L813.96-22.32Q816.76-22.32 818.82-20.90Q820.88-19.48 821.76-16.72L821.76-16.72Q822.68-19.40 824.84-20.86Q827-22.32 829.72-22.32L829.72-22.32Z M860.00-22.24Q862.92-22.24 865.20-20.88Q867.48-19.52 868.78-16.96Q870.08-14.40 870.08-10.96L870.08-10.96Q870.08-7.52 868.78-4.98Q867.48-2.44 865.20-1.08Q862.92 0.28 860.00 0.28L860.00 0.28Q856.80 0.28 854.58-1.34Q852.36-2.96 851.52-5.60L851.52-5.60L851.52 0L847.88 0L847.88-29.60L851.52-29.60L851.52-16.36Q852.36-19 854.58-20.62Q856.80-22.24 860.00-22.24L860.00-22.24ZM858.96-19Q856.84-19 855.12-18.02Q853.40-17.04 852.44-15.20Q851.48-13.36 851.48-10.96L851.48-10.96Q851.48-8.56 852.44-6.74Q853.40-4.92 855.12-3.92Q856.84-2.92 858.96-2.92L858.96-2.92Q862.36-2.92 864.38-5.06Q866.40-7.20 866.40-10.96L866.40-10.96Q866.40-14.72 864.38-16.86Q862.36-19 858.96-19L858.96-19Z M878.84-29.60L882.48-29.60L882.48 0L878.84 0L878.84-29.60Z M912.52-12.20Q912.52-11.04 912.36-10.20L912.36-10.20L894.80-10.20Q894.92-6.44 896.94-4.56Q898.96-2.68 901.88-2.68L901.88-2.68Q904.52-2.68 906.30-4.02Q908.08-5.36 908.48-7.60L908.48-7.60L912.36-7.60Q911.96-5.32 910.58-3.52Q909.20-1.72 907-0.72Q904.80 0.28 902.04 0.28L902.04 0.28Q898.88 0.28 896.44-1.08Q894-2.44 892.62-4.98Q891.24-7.52 891.24-10.96L891.24-10.96Q891.24-14.40 892.62-16.96Q894-19.52 896.44-20.88Q898.88-22.24 902.04-22.24L902.04-22.24Q905.24-22.24 907.62-20.88Q910-19.52 911.26-17.24Q912.52-14.96 912.52-12.20L912.52-12.20ZM908.84-11.96Q908.96-14.40 908.04-16.04Q907.12-17.68 905.52-18.48Q903.92-19.28 902.04-19.28L902.04-19.28Q899.04-19.28 897-17.42Q894.96-15.56 894.80-11.96L894.80-11.96L908.84-11.96Z M919.56-4.28L923.96-4.28L923.96 0L919.56 0L919.56-4.28Z"/></g>
</svg>
</g><g opacity="1" transform="rotate(0 176.7403 267.5)">
<svg width="342.3685" height="50" x="176.7403" y="267.5" version="1.1" preserveAspectRatio="none" viewBox="1.52 -29.6 204.6 29.88">
  <g transform="matrix(1 0 0 1 0 0)" class="companyName"><path id="id-D6z1nYkh9" d="M15.28-28.56Q20.68-28.56 24.22-25.72Q27.76-22.88 28.80-18.04L28.80-18.04L21.56-18.04Q20.76-20 19.10-21.12Q17.44-22.24 15.16-22.24L15.16-22.24Q12.16-22.24 10.32-20.04Q8.48-17.84 8.48-14.16L8.48-14.16Q8.48-10.48 10.32-8.30Q12.16-6.12 15.16-6.12L15.16-6.12Q17.44-6.12 19.10-7.24Q20.76-8.36 21.56-10.28L21.56-10.28L28.80-10.28Q27.76-5.48 24.22-2.62Q20.68 0.24 15.28 0.24L15.28 0.24Q11.16 0.24 8.04-1.58Q4.92-3.40 3.22-6.68Q1.52-9.96 1.52-14.16L1.52-14.16Q1.52-18.36 3.22-21.64Q4.92-24.92 8.04-26.74Q11.16-28.56 15.28-28.56L15.28-28.56Z M43.88-22.60Q47.20-22.60 49.82-21.22Q52.44-19.84 53.94-17.24Q55.44-14.64 55.44-11.16L55.44-11.16Q55.44-7.68 53.94-5.08Q52.44-2.48 49.82-1.10Q47.20 0.28 43.88 0.28L43.88 0.28Q40.56 0.28 37.92-1.10Q35.28-2.48 33.78-5.08Q32.28-7.68 32.28-11.16L32.28-11.16Q32.28-14.64 33.78-17.24Q35.28-19.84 37.92-21.22Q40.56-22.60 43.88-22.60L43.88-22.60ZM43.88-16.68Q41.92-16.68 40.58-15.26Q39.24-13.84 39.24-11.16L39.24-11.16Q39.24-8.48 40.58-7.08Q41.92-5.68 43.88-5.68L43.88-5.68Q45.84-5.68 47.16-7.08Q48.48-8.48 48.48-11.16L48.48-11.16Q48.48-13.84 47.16-15.26Q45.84-16.68 43.88-16.68L43.88-16.68Z M59.80-29.60L66.64-29.60L66.64 0L59.80 0L59.80-29.60Z M72.16-29.60L79-29.60L79 0L72.16 0L72.16-29.60Z M93-22.60Q95.56-22.60 97.40-21.44Q99.24-20.28 100.12-18.28L100.12-18.28L100.12-22.32L106.92-22.32L106.92 0L100.12 0L100.12-4.04Q99.24-2.04 97.40-0.88Q95.56 0.28 93 0.28L93 0.28Q90.24 0.28 88.06-1.10Q85.88-2.48 84.62-5.08Q83.36-7.68 83.36-11.16L83.36-11.16Q83.36-14.68 84.62-17.26Q85.88-19.84 88.06-21.22Q90.24-22.60 93-22.60L93-22.60ZM95.20-16.60Q93-16.60 91.66-15.16Q90.32-13.72 90.32-11.16L90.32-11.16Q90.32-8.60 91.66-7.16Q93-5.72 95.20-5.72L95.20-5.72Q97.36-5.72 98.74-7.20Q100.12-8.68 100.12-11.16L100.12-11.16Q100.12-13.68 98.74-15.14Q97.36-16.60 95.20-16.60L95.20-16.60Z M126.36-22.60Q129.12-22.60 131.30-21.22Q133.48-19.84 134.74-17.26Q136-14.68 136-11.16L136-11.16Q136-7.68 134.74-5.08Q133.48-2.48 131.30-1.10Q129.12 0.28 126.36 0.28L126.36 0.28Q123.80 0.28 121.96-0.88Q120.12-2.04 119.28-4.04L119.28-4.04L119.28 0L112.44 0L112.44-29.60L119.28-29.60L119.28-18.28Q120.12-20.28 121.96-21.44Q123.80-22.60 126.36-22.60L126.36-22.60ZM124.16-16.60Q122-16.60 120.62-15.14Q119.24-13.68 119.24-11.16L119.24-11.16Q119.24-8.68 120.62-7.20Q122-5.72 124.16-5.72L124.16-5.72Q126.36-5.72 127.70-7.16Q129.04-8.60 129.04-11.16L129.04-11.16Q129.04-13.72 127.70-15.16Q126.36-16.60 124.16-16.60L124.16-16.60Z M151.44-9.92L147.20-9.92L147.20 0L140.36 0L140.36-28.28L151.44-28.28Q156.48-28.28 159.12-25.78Q161.76-23.28 161.76-19.04L161.76-19.04Q161.76-16.40 160.58-14.34Q159.40-12.28 157.08-11.10Q154.76-9.92 151.44-9.92L151.44-9.92ZM150.68-15.40Q154.80-15.40 154.80-19.04L154.80-19.04Q154.80-22.76 150.68-22.76L150.68-22.76L147.20-22.76L147.20-15.40L150.68-15.40Z M172.76-18.12Q174.04-20.16 176.06-21.36Q178.08-22.56 180.44-22.56L180.44-22.56L180.44-15.24L178.48-15.24Q175.76-15.24 174.26-14.08Q172.76-12.92 172.76-10.16L172.76-10.16L172.76 0L165.92 0L165.92-22.32L172.76-22.32L172.76-18.12Z M194.56-22.60Q197.88-22.60 200.50-21.22Q203.12-19.84 204.62-17.24Q206.12-14.64 206.12-11.16L206.12-11.16Q206.12-7.68 204.62-5.08Q203.12-2.48 200.50-1.10Q197.88 0.28 194.56 0.28L194.56 0.28Q191.24 0.28 188.60-1.10Q185.96-2.48 184.46-5.08Q182.96-7.68 182.96-11.16L182.96-11.16Q182.96-14.64 184.46-17.24Q185.96-19.84 188.60-21.22Q191.24-22.60 194.56-22.60L194.56-22.60ZM194.56-16.68Q192.60-16.68 191.26-15.26Q189.92-13.84 189.92-11.16L189.92-11.16Q189.92-8.48 191.26-7.08Q192.60-5.68 194.56-5.68L194.56-5.68Q196.52-5.68 197.84-7.08Q199.16-8.48 199.16-11.16L199.16-11.16Q199.16-13.84 197.84-15.26Q196.52-16.68 194.56-16.68L194.56-16.68Z"/></g>
</svg>
</g></svg></svg>